# xmcd CD database file
#
# Track frame offsets:
#	150
#	17272
#	29125
#	46232
#	58575
#	74022
#	85317
#	97667
#	118510
#	125710
#
# Disc length: 1825 seconds
#
# Revision: 0
# Processed by: cddbd v1.5.1PL0 Copyright (c) Steve Scherf et al.
# Submitted via: CDex 1.51
#
DISCID=82071f0a
DTITLE=Various Artist - Great Jazz and Big Band Themes
DYEAR=1900
DGENRE=Jazz
TTITLE0=Count Basie/One o´clock jump
TTITLE1=Tommy Dorsey/I´m getting sentimental oveer you
TTITLE2=Duke Ellington/East St. Louis Toodle-oo
TTITLE3=Glenn Miller Orchestra/Moonlight serenade
TTITLE4=Benny Goodman/Goodbye
TTITLE5=Harry James/Ciribiribin
TTITLE6=Louis Armstrong/When it´s sleepy time down south
TTITLE7=Bunny Berigan/I can´t get started
TTITLE8=Fats Waller/Ain´t misbehavin
TTITLE9=Chick Webb/Stompin´at the Savoy
EXTD=
EXTT0=
EXTT1=
EXTT2=
EXTT3=
EXTT4=
EXTT5=
EXTT6=
EXTT7=
EXTT8=
EXTT9=
PLAYORDER=
